<svg width="171" height="32" viewBox="0 0 171 32" fill="none" xmlns="http://www.w3.org/2000/svg">
    <rect width="171" height="32" rx="16" fill="#003176" />
    <path d="M27.6253 9.34739H24.5833L20.9293 19.6434L17.2213 9.34739H14.1433L19.3453 22.7754H22.5133L27.6253 9.34739ZM29.1364 22.7754H37.5604V20.1474H32.0704V17.2134H37.0924V14.7834H32.0704V11.9934H37.5604V9.34739H29.1364V22.7754ZM46.1364 17.8074C48.7104 17.1414 49.5564 15.3234 49.5564 13.7214C49.5564 10.9134 47.5404 9.34739 44.3004 9.34739H40.0524V22.7754H42.9864V18.0594H43.1124L46.6764 22.7754H50.2044L46.1364 17.8074ZM42.9864 15.7914V12.0294H44.2284C45.6864 12.0294 46.6044 12.6774 46.6044 13.9014C46.6044 15.0894 45.7584 15.7914 44.1744 15.7914H42.9864ZM51.988 22.7754H54.922V9.34739H51.988V22.7754ZM57.8415 22.7754H60.7755V17.9154H65.7435V15.3954H60.7755V12.0294H66.0675V9.34739H57.8415V22.7754ZM68.3532 22.7754H76.7772V20.1474H71.2872V17.2134H76.3092V14.7834H71.2872V11.9934H76.7772V9.34739H68.3532V22.7754ZM82.7792 22.7754H85.6952V17.4114L90.6452 9.34739H87.5132L84.3452 14.8014H84.2912L81.0872 9.34739H77.7932L82.7792 17.4294V22.7754ZM92.1013 22.7754H100.525V20.1474H95.0353V17.2134H100.057V14.7834H95.0353V11.9934H100.525V9.34739H92.1013V22.7754ZM106.977 9.34739H103.017V22.7754H106.977C111.297 22.7754 114.285 20.1114 114.285 16.0614C114.285 12.0294 111.351 9.34739 106.977 9.34739ZM105.951 12.0294H107.103C109.605 12.0294 111.315 13.4694 111.315 16.0794C111.315 18.6534 109.605 20.1114 107.103 20.1114H105.951V12.0294Z" fill="white" />
    <path d="M155.141 4H132.859C126.31 4 121 9.37258 121 16C121 22.6274 126.31 28 132.859 28H155.141C161.69 28 167 22.6274 167 16C167 9.37258 161.69 4 155.141 4Z" fill="white" />
    <path d="M154.723 26.0377C160.235 26.0377 164.703 21.5153 164.703 15.9366C164.703 10.3579 160.235 5.83545 154.723 5.83545C149.211 5.83545 144.743 10.3579 144.743 15.9366C144.743 21.5153 149.211 26.0377 154.723 26.0377Z" fill="#4FBBEB" stroke="#010101" stroke-width="0.75" stroke-miterlimit="10" />
    <path d="M133.295 26.0377C138.807 26.0377 143.275 21.5153 143.275 15.9366C143.275 10.3579 138.807 5.83545 133.295 5.83545C127.783 5.83545 123.314 10.3579 123.314 15.9366C123.314 21.5153 127.783 26.0377 133.295 26.0377Z" fill="#4FBBEB" stroke="#010101" stroke-width="0.75" stroke-miterlimit="10" />
    <path d="M154.723 23.8038C159.016 23.8038 162.496 20.2815 162.496 15.9366C162.496 11.5917 159.016 8.06946 154.723 8.06946C150.43 8.06946 146.95 11.5917 146.95 15.9366C146.95 20.2815 150.43 23.8038 154.723 23.8038Z" fill="white" stroke="#010101" stroke-width="1.5" stroke-miterlimit="10" />
    <path d="M133.295 23.8038C137.588 23.8038 141.068 20.2815 141.068 15.9366C141.068 11.5917 137.588 8.06946 133.295 8.06946C129.002 8.06946 125.522 11.5917 125.522 15.9366C125.522 20.2815 129.002 23.8038 133.295 23.8038Z" fill="white" stroke="#010101" stroke-width="1.5" stroke-miterlimit="10" />
    <path d="M129.692 20.3924C130.986 20.3924 132.036 18.784 132.036 16.8C132.036 14.8159 130.986 13.2075 129.692 13.2075C128.397 13.2075 127.347 14.8159 127.347 16.8C127.347 18.784 128.397 20.3924 129.692 20.3924Z" fill="#010101" />
    <path d="M130.288 17.4098C130.796 17.4098 131.207 16.7799 131.207 16.003C131.207 15.226 130.796 14.5962 130.288 14.5962C129.781 14.5962 129.37 15.226 129.37 16.003C129.37 16.7799 129.781 17.4098 130.288 17.4098Z" fill="white" />
    <path d="M151.12 20.3924C152.415 20.3924 153.464 18.784 153.464 16.8C153.464 14.8159 152.415 13.2075 151.12 13.2075C149.825 13.2075 148.775 14.8159 148.775 16.8C148.775 18.784 149.825 20.3924 151.12 20.3924Z" fill="#010101" />
    <path d="M151.717 17.4098C152.224 17.4098 152.635 16.7799 152.635 16.003C152.635 15.226 152.224 14.5962 151.717 14.5962C151.209 14.5962 150.798 15.226 150.798 16.003C150.798 16.7799 151.209 17.4098 151.717 17.4098Z" fill="white" />
</svg>
    