<svg width="17" height="14" viewBox="0 0 17 14" fill="none" xmlns="http://www.w3.org/2000/svg">
<path d="M2.49619 0.224256C2.58876 0.0842305 2.74542 0 2.91328 0H16.0701C16.4685 0 16.7069 0.443343 16.4871 0.775744L14.5038 3.77574C14.4112 3.91577 14.2546 4 14.0867 4H0.929943C0.531469 4 0.293099 3.55666 0.512853 3.22426L2.49619 0.224256Z" fill="#4703A6"/>
<path d="M14.5038 5.22426C14.4112 5.08423 14.2546 5 14.0867 5H0.929943C0.531467 5 0.293098 5.44334 0.512852 5.77574L2.49619 8.77574C2.58876 8.91577 2.74542 9 2.91328 9H16.0701C16.4685 9 16.7069 8.55666 16.4871 8.22426L14.5038 5.22426Z" fill="#4703A6"/>
<path d="M2.49619 10.2243C2.58876 10.0842 2.74542 10 2.91328 10H16.0701C16.4685 10 16.7069 10.4433 16.4871 10.7757L14.5038 13.7757C14.4112 13.9158 14.2546 14 14.0867 14H0.929943C0.531469 14 0.293099 13.5567 0.512853 13.2243L2.49619 10.2243Z" fill="#4703A6"/>
</svg>
