<?xml version="1.0" standalone="no"?>
<!DOCTYPE svg PUBLIC "-//W3C//DTD SVG 20010904//EN"
 "http://www.w3.org/TR/2001/REC-SVG-20010904/DTD/svg10.dtd">
<svg version="1.0" xmlns="http://www.w3.org/2000/svg"
 width="700.000000pt" height="700.000000pt" viewBox="0 0 700.000000 700.000000"
 preserveAspectRatio="xMidYMid meet">
<metadata>
Created by potrace 1.14, written by Peter Selinger 2001-2017
</metadata>
<g transform="translate(0.000000,700.000000) scale(0.100000,-0.100000)"
fill="#000000" stroke="none">
<path d="M3269 6996 c-2 -2 -46 -7 -97 -10 -51 -4 -99 -9 -105 -11 -7 -2 -34
-6 -62 -9 -27 -3 -97 -14 -155 -26 -58 -12 -116 -23 -130 -26 -83 -16 -370
-102 -445 -134 -11 -4 -47 -18 -80 -31 -33 -12 -116 -49 -185 -81 -69 -32
-125 -58 -125 -57 0 0 -36 -20 -80 -46 -44 -27 -96 -57 -115 -67 -141 -80
-334 -223 -504 -373 -547 -481 -929 -1119 -1095 -1825 -11 -47 -23 -101 -26
-120 -3 -19 -10 -57 -15 -85 -34 -173 -45 -323 -45 -595 0 -253 5 -337 30
-506 14 -92 23 -140 50 -264 73 -337 240 -753 418 -1037 29 -46 57 -91 62
-101 26 -45 136 -195 213 -291 167 -205 336 -372 565 -557 50 -41 172 -127
247 -176 440 -284 921 -464 1430 -534 19 -2 49 -6 65 -9 171 -26 605 -26 835
0 169 20 529 98 628 136 15 6 34 12 42 14 8 2 58 19 110 38 915 336 1647 1036
2028 1937 59 140 147 402 167 500 2 8 13 58 24 110 57 267 76 446 75 740 0
174 -10 395 -18 409 -2 4 -7 35 -10 70 -4 36 -8 67 -10 70 -2 3 -7 29 -10 56
-22 169 -104 458 -193 685 -251 639 -691 1190 -1276 1599 -48 33 -90 61 -92
61 -2 0 -35 20 -73 44 -93 61 -333 183 -467 238 -200 83 -410 148 -620 193
-131 27 -168 34 -300 50 -33 3 -71 9 -85 12 -29 6 -565 14 -571 9z"/>
</g>
</svg>
