<svg xmlns="http://www.w3.org/2000/svg" viewBox="0 0 200 200"><defs><style>.a{fill:#1b75ba;}.b{fill:#4fbbeb;stroke-width:0.75px;}.b,.c{stroke:#010101;stroke-miterlimit:10;}.c,.e{fill:#fff;}.c{stroke-width:1.5px;}.d{fill:#010101;}</style></defs><path class="a" d="M26.146,100c0,20.377,17.037,36.9,38.054,36.9h71.485c21.014,0,38.051-16.521,38.051-36.9S156.7,63.1,135.682,63.1H64.2C43.183,63.1,26.146,79.623,26.146,100Z"/><path class="b" d="M97.557,99.806c0-17.155-14.336-31.061-32.022-31.061S33.516,82.651,33.516,99.806s14.336,31.058,32.022,31.058S97.557,116.958,97.557,99.806Zm68.753,0c0-17.155-14.336-31.061-32.022-31.061s-32.022,13.906-32.022,31.061,14.335,31.058,32.022,31.058S166.31,116.958,166.31,99.806Z"/><path class="c" d="M65.535,124c13.773,0,24.941-10.833,24.941-24.19S79.31,75.616,65.538,75.616,40.6,86.446,40.6,99.806,51.763,124,65.538,124Zm93.693-24.19c0-13.36-11.165-24.19-24.938-24.19s-24.943,10.83-24.943,24.19S120.513,124,134.288,124,159.228,113.163,159.228,99.806Z"/><path class="d" d="M132.027,101.82c0-6.1-3.367-11.044-7.525-11.044s-7.522,4.946-7.522,11.047,3.37,11.044,7.522,11.044S132.027,107.921,132.027,101.82Z"/><path class="e" d="M122.591,103.7c1.626,0,2.947-1.936,2.947-4.327s-1.321-4.324-2.949-4.324-2.947,1.938-2.947,4.324,1.321,4.327,2.947,4.327Z"/><path class="d" d="M63.275,101.82c0-6.1-3.368-11.044-7.523-11.044s-7.522,4.946-7.522,11.047,3.368,11.044,7.522,11.044S63.275,107.921,63.275,101.82Z"/><path class="e" d="M56.786,99.37c0-2.388-1.319-4.324-2.947-4.324s-2.947,1.938-2.947,4.324,1.318,4.327,2.947,4.327S56.786,101.761,56.786,99.37Z"/></svg>