<svg xmlns="http://www.w3.org/2000/svg" viewBox="0 0 200 200"><defs><style>.a{fill:#1b75ba;}.b{fill:#4fbbeb;stroke-width:0.75px;}.b,.c{stroke:#010101;stroke-miterlimit:10;}.c,.e{fill:#fff;}.c{stroke-width:1.5px;}.d{fill:#010101;}</style></defs><path class="a" d="M135.685,63.1H64.2c-21.017,0-38.054,16.521-38.054,36.9S43.183,136.9,64.2,136.9h71.485c21.017,0,38.054-16.521,38.054-36.9S156.7,63.1,135.685,63.1Z"/><path class="b" d="M134.344,130.864c17.686,0,32.022-13.906,32.022-31.058S152.03,68.745,134.347,68.745s-32.022,13.906-32.022,31.061S116.66,130.864,134.344,130.864Zm-68.75,0c17.687,0,32.022-13.906,32.022-31.058S83.278,68.745,65.594,68.745,33.572,82.651,33.572,99.806,47.908,130.864,65.594,130.864Z"/><path class="c" d="M134.344,124c13.775,0,24.943-10.831,24.943-24.19s-11.168-24.19-24.943-24.19-24.938,10.83-24.938,24.19S120.574,124,134.347,124Zm-68.75,0c13.775,0,24.941-10.831,24.941-24.19s-11.168-24.19-24.943-24.19-24.938,10.83-24.938,24.19S51.822,124,65.594,124Z"/><path class="d" d="M75.38,112.867c4.152,0,7.522-4.944,7.522-11.044s-3.37-11.047-7.522-11.047-7.525,4.944-7.525,11.044S71.225,112.867,75.38,112.867Z"/><path class="e" d="M77.293,103.7c1.626,0,2.947-1.936,2.947-4.327s-1.321-4.324-2.947-4.324-2.949,1.936-2.949,4.324,1.321,4.327,2.947,4.327Z"/><path class="d" d="M144.129,112.867c4.155,0,7.523-4.944,7.523-11.044s-3.37-11.047-7.523-11.047-7.522,4.944-7.522,11.044S139.977,112.867,144.129,112.867Z"/><path class="e" d="M146.043,103.7c1.629,0,2.947-1.936,2.947-4.327s-1.318-4.324-2.947-4.324S143.1,96.982,143.1,99.37,144.415,103.7,146.043,103.7Z"/></svg>