<svg width="175" height="30" viewBox="0 0 175 30" fill="none" xmlns="http://www.w3.org/2000/svg">
<path d="M75.491 7.864H71.786V22H75.491C79.994 22 83.091 19.207 83.091 14.932C83.091 10.676 80.07 7.864 75.491 7.864ZM74.066 9.954H75.605C78.626 9.954 80.773 11.74 80.773 14.932C80.773 18.105 78.626 19.91 75.586 19.91H74.066V9.954ZM86.6493 9.612C87.3903 9.612 87.9603 9.061 87.9603 8.339C87.9603 7.598 87.3903 7.047 86.6493 7.047C85.9083 7.047 85.3383 7.598 85.3383 8.339C85.3383 9.061 85.9083 9.612 86.6493 9.612ZM85.5283 22H87.7703V11.626H85.5283V22ZM94.8263 11.398C92.3943 11.398 90.1333 13.545 90.1333 16.604C90.1333 19.72 92.3563 21.81 94.7883 21.81C96.2513 21.81 97.5053 21.069 98.2083 19.948V21.278C98.2083 23.045 96.7643 24.223 94.9213 24.223C93.6103 24.223 92.2423 23.653 91.1783 22.722V24.983C92.2613 25.762 93.6673 26.237 95.0733 26.237C98.0373 26.237 100.45 24.394 100.45 20.974V11.626H98.5883L98.3413 13.336C97.6193 12.158 96.2893 11.398 94.8263 11.398ZM95.3203 13.431C96.9923 13.431 98.2653 14.761 98.2653 16.566C98.2653 18.409 96.9923 19.796 95.3203 19.796C93.6483 19.796 92.3753 18.428 92.3753 16.623C92.3753 14.818 93.6483 13.431 95.3203 13.431ZM104.536 9.612C105.277 9.612 105.847 9.061 105.847 8.339C105.847 7.598 105.277 7.047 104.536 7.047C103.795 7.047 103.225 7.598 103.225 8.339C103.225 9.061 103.795 9.612 104.536 9.612ZM103.415 22H105.657V11.626H103.415V22ZM111.345 9.213H109.179V11.626H107.621V13.526H109.141V18.238C109.141 20.708 110.604 22.171 113.055 22.171C113.682 22.171 114.157 22.095 114.442 22.038V20.119C114.1 20.176 113.796 20.214 113.511 20.214C112.257 20.214 111.345 19.606 111.345 18.124V13.526H114.214V11.626H111.345V9.213ZM120.375 22.247C121.895 22.247 123.225 21.487 123.966 20.214L124.213 22H126.075V11.626H124.213L123.966 13.412C123.225 12.139 121.895 11.379 120.375 11.379C118 11.379 115.72 13.526 115.72 16.832C115.72 20.1 118 22.247 120.375 22.247ZM120.945 20.195C119.254 20.195 117.962 18.808 117.962 16.813C117.962 14.837 119.254 13.431 120.945 13.431C122.598 13.431 123.89 14.837 123.89 16.813C123.89 18.808 122.598 20.195 120.945 20.195ZM129.039 22H131.281V6.781H129.039V22ZM134.575 22H142.764V19.929H136.855V15.787H142.289V13.83H136.855V9.935H142.764V7.864H134.575V22ZM154.091 11.626H151.773L149.151 19.112H149.113L146.51 11.626H144.078L147.973 21.658L146.187 25.99H148.448L154.091 11.626ZM164.579 16.623C164.579 13.184 162.508 11.379 160 11.379C157.226 11.379 154.908 13.526 154.908 16.851C154.908 20.043 156.96 22.247 160.361 22.247C161.691 22.247 162.907 21.886 163.971 21.164V19.15C162.926 19.967 161.767 20.385 160.589 20.385C158.765 20.385 157.378 19.321 157.074 17.497H164.522C164.56 17.231 164.579 16.946 164.579 16.623ZM157.055 15.996C157.321 14.286 158.556 13.241 159.981 13.241C161.273 13.241 162.394 14.153 162.451 15.996H157.055ZM170.367 11.379C167.916 11.379 166.434 12.728 166.434 14.533C166.434 16.376 167.973 16.984 169.664 17.478C171.089 17.915 171.982 18.2 171.982 19.055C171.982 19.815 171.26 20.347 169.987 20.347C168.486 20.347 167.289 19.72 166.434 18.941V21.145C167.384 21.867 168.676 22.247 170.063 22.247C172.628 22.247 174.167 20.993 174.167 19.036C174.167 16.908 172.343 16.357 170.709 15.92C169.398 15.54 168.619 15.255 168.619 14.476C168.619 13.754 169.265 13.298 170.443 13.298C171.64 13.298 172.818 13.716 173.559 14.305V12.253C172.799 11.721 171.564 11.379 170.367 11.379Z" fill="white"/>
<path d="M44.5312 0H15.4688C6.92562 0 0 6.71573 0 15C0 23.2843 6.92562 30 15.4688 30H44.5312C53.0744 30 60 23.2843 60 15C60 6.71573 53.0744 0 44.5312 0Z" fill="white"/>
<path d="M43.9865 27.5472C51.176 27.5472 57.0043 21.8941 57.0043 14.9208C57.0043 7.94738 51.176 2.29434 43.9865 2.29434C36.797 2.29434 30.9688 7.94738 30.9688 14.9208C30.9688 21.8941 36.797 27.5472 43.9865 27.5472Z" fill="#4FBBEB" stroke="#010101" stroke-width="0.75" stroke-miterlimit="10"/>
<path d="M16.0368 27.5472C23.2263 27.5472 29.0546 21.8941 29.0546 14.9208C29.0546 7.94738 23.2263 2.29434 16.0368 2.29434C8.84729 2.29434 3.01904 7.94738 3.01904 14.9208C3.01904 21.8941 8.84729 27.5472 16.0368 27.5472Z" fill="#4FBBEB" stroke="#010101" stroke-width="0.75" stroke-miterlimit="10"/>
<path d="M43.9864 24.7547C49.5859 24.7547 54.1252 20.3519 54.1252 14.9208C54.1252 9.48961 49.5859 5.08679 43.9864 5.08679C38.3869 5.08679 33.8477 9.48961 33.8477 14.9208C33.8477 20.3519 38.3869 24.7547 43.9864 24.7547Z" fill="white" stroke="#010101" stroke-width="1.5" stroke-miterlimit="10"/>
<path d="M16.0367 24.7547C21.6362 24.7547 26.1755 20.3519 26.1755 14.9208C26.1755 9.48961 21.6362 5.08679 16.0367 5.08679C10.4372 5.08679 5.89795 9.48961 5.89795 14.9208C5.89795 20.3519 10.4372 24.7547 16.0367 24.7547Z" fill="white" stroke="#010101" stroke-width="1.5" stroke-miterlimit="10"/>
<path d="M20.0145 20.2311C21.7034 20.2311 23.0725 18.2206 23.0725 15.7406C23.0725 13.2605 21.7034 11.25 20.0145 11.25C18.3256 11.25 16.9565 13.2605 16.9565 15.7406C16.9565 18.2206 18.3256 20.2311 20.0145 20.2311Z" fill="#010101"/>
<path d="M20.7925 16.5028C21.4543 16.5028 21.9908 15.7155 21.9908 14.7443C21.9908 13.7731 21.4543 12.9858 20.7925 12.9858C20.1307 12.9858 19.5942 13.7731 19.5942 14.7443C19.5942 15.7155 20.1307 16.5028 20.7925 16.5028Z" fill="white"/>
<path d="M47.9642 20.2311C49.6531 20.2311 51.0222 18.2206 51.0222 15.7406C51.0222 13.2605 49.6531 11.25 47.9642 11.25C46.2753 11.25 44.9062 13.2605 44.9062 15.7406C44.9062 18.2206 46.2753 20.2311 47.9642 20.2311Z" fill="#010101"/>
<path d="M48.7422 16.5028C49.404 16.5028 49.9405 15.7155 49.9405 14.7443C49.9405 13.7731 49.404 12.9858 48.7422 12.9858C48.0804 12.9858 47.5439 13.7731 47.5439 14.7443C47.5439 15.7155 48.0804 16.5028 48.7422 16.5028Z" fill="white"/>
</svg>
